<?xml version="1.0" encoding="UTF-8"?>
<!-- Generated by Pixelmator Pro 3.7.1 -->
<svg width="160" height="160" viewBox="0 0 160 160" xmlns="http://www.w3.org/2000/svg">
    <path id="Path" fill="#000000" stroke="none" d="M 126 81 C 126 105.852814 105.852814 126 81 126 C 56.147186 126 36 105.852814 36 81 C 36 56.147186 56.147186 36 81 36 C 105.852814 36 126 56.147186 126 81 Z"/>
    <path id="path1" fill="#000000" stroke="none" d="M 16 76 L 146 76 L 146 86 L 16 86 Z"/>
    <path id="path2" fill="#000000" stroke="none" d="M 76 16 L 86 16 L 86 146 L 76 146 Z"/>
    <path id="path3" fill="#000000" stroke="#000000" stroke-width="10" d="M 36 36 L 126 126"/>
    <path id="path4" fill="#000000" stroke="#000000" stroke-width="10" d="M 126 36 L 36 126"/>
    <path id="path5" fill="#ffffff" stroke="none" d="M 77 66 C 77 72.075134 72.075134 77 66 77 C 59.92487 77 55 72.075134 55 66 C 55 59.924866 59.92487 55 66 55 C 72.075134 55 77 59.924866 77 66 Z"/>
</svg>
